<svg width="18" height="19" viewBox="0 0 18 19" xmlns="http://www.w3.org/2000/svg"><path d="M15.922 11.112c1.05 0 1.905.836 1.905 1.866 0 1.03-.855 1.866-1.907 1.866H2.08c-1.053 0-1.907-.835-1.907-1.866 0-1.03.853-1.866 1.905-1.866a.172.172 0 0 0 .172-.17V6.87C2.25 3.215 5.272.254 9 .254s6.75 2.962 6.75 6.616v4.071c0 .096.076.17.172.17zm0 1.017c-.67 0-1.21-.53-1.21-1.188v-4.07c0-3.093-2.557-5.599-5.712-5.599S3.288 3.778 3.288 6.87v4.071a1.2 1.2 0 0 1-1.21 1.188.858.858 0 0 0-.866.849c0 .468.388.848.868.848h13.84a.86.86 0 0 0 .868-.848.86.86 0 0 0-.866-.849zm-9.864 3.733h1.038c0 1.03.853 1.866 1.904 1.866s1.904-.836 1.904-1.866h1.038c0 1.592-1.317 2.884-2.942 2.884-1.625 0-2.942-1.292-2.942-2.884z" fill="#000000" fill-rule="nonzero"/></svg>